<mxfile host="app.diagrams.net" modified="2021-06-02T13:32:02.164Z" agent="5.0 (Windows NT 10.0; Win64; x64) AppleWebKit/537.36 (KHTML, like Gecko) Chrome/91.0.4472.77 Safari/537.36 Edg/91.0.864.37" etag="SAaazZCxYmjtRHkT6Axs" version="14.7.3" type="github">
  <diagram id="C5RBs43oDa-KdzZeNtuy" name="Page-1">
    <mxGraphModel dx="920" dy="551" grid="1" gridSize="10" guides="1" tooltips="1" connect="1" arrows="1" fold="1" page="1" pageScale="1" pageWidth="827" pageHeight="1169" math="0" shadow="0">
      <root>
        <mxCell id="WIyWlLk6GJQsqaUBKTNV-0" />
        <mxCell id="WIyWlLk6GJQsqaUBKTNV-1" parent="WIyWlLk6GJQsqaUBKTNV-0" />
        <mxCell id="WIyWlLk6GJQsqaUBKTNV-3" value="Начало" style="rounded=1;whiteSpace=wrap;html=1;fontSize=12;glass=0;strokeWidth=1;shadow=0;" parent="WIyWlLk6GJQsqaUBKTNV-1" vertex="1">
          <mxGeometry x="319" y="60" width="120" height="40" as="geometry" />
        </mxCell>
        <mxCell id="KOwG92DhggsPmwGEyfMD-62" style="edgeStyle=orthogonalEdgeStyle;rounded=0;orthogonalLoop=1;jettySize=auto;html=1;entryX=0.5;entryY=0;entryDx=0;entryDy=0;" edge="1" parent="WIyWlLk6GJQsqaUBKTNV-1" source="KOwG92DhggsPmwGEyfMD-1" target="KOwG92DhggsPmwGEyfMD-3">
          <mxGeometry relative="1" as="geometry">
            <Array as="points">
              <mxPoint x="519" y="195" />
            </Array>
          </mxGeometry>
        </mxCell>
        <mxCell id="KOwG92DhggsPmwGEyfMD-63" style="edgeStyle=orthogonalEdgeStyle;rounded=0;orthogonalLoop=1;jettySize=auto;html=1;entryX=0.5;entryY=0;entryDx=0;entryDy=0;" edge="1" parent="WIyWlLk6GJQsqaUBKTNV-1" source="KOwG92DhggsPmwGEyfMD-1" target="KOwG92DhggsPmwGEyfMD-2">
          <mxGeometry relative="1" as="geometry" />
        </mxCell>
        <mxCell id="KOwG92DhggsPmwGEyfMD-1" value="Автоматический &lt;br&gt;режим?" style="rhombus;whiteSpace=wrap;html=1;" vertex="1" parent="WIyWlLk6GJQsqaUBKTNV-1">
          <mxGeometry x="307" y="150" width="150" height="90" as="geometry" />
        </mxCell>
        <mxCell id="KOwG92DhggsPmwGEyfMD-71" style="edgeStyle=orthogonalEdgeStyle;rounded=0;orthogonalLoop=1;jettySize=auto;html=1;entryX=0.5;entryY=0;entryDx=0;entryDy=0;startArrow=none;startFill=0;endArrow=none;endFill=0;strokeColor=#000000;" edge="1" parent="WIyWlLk6GJQsqaUBKTNV-1" source="KOwG92DhggsPmwGEyfMD-2" target="KOwG92DhggsPmwGEyfMD-5">
          <mxGeometry relative="1" as="geometry">
            <Array as="points">
              <mxPoint x="40" y="280" />
              <mxPoint x="40" y="380" />
              <mxPoint x="212" y="380" />
            </Array>
          </mxGeometry>
        </mxCell>
        <mxCell id="KOwG92DhggsPmwGEyfMD-76" style="edgeStyle=orthogonalEdgeStyle;rounded=0;orthogonalLoop=1;jettySize=auto;html=1;entryX=0;entryY=0.5;entryDx=0;entryDy=0;startArrow=none;startFill=0;endArrow=none;endFill=0;strokeColor=#000000;" edge="1" parent="WIyWlLk6GJQsqaUBKTNV-1" source="KOwG92DhggsPmwGEyfMD-2" target="KOwG92DhggsPmwGEyfMD-4">
          <mxGeometry relative="1" as="geometry">
            <Array as="points">
              <mxPoint x="320" y="280" />
              <mxPoint x="320" y="401" />
            </Array>
          </mxGeometry>
        </mxCell>
        <mxCell id="KOwG92DhggsPmwGEyfMD-2" value="Авто-температура &lt;br&gt;&amp;lt;= &lt;br&gt;температура воздуха" style="rhombus;whiteSpace=wrap;html=1;" vertex="1" parent="WIyWlLk6GJQsqaUBKTNV-1">
          <mxGeometry x="82" y="230" width="190" height="100" as="geometry" />
        </mxCell>
        <mxCell id="KOwG92DhggsPmwGEyfMD-57" style="edgeStyle=orthogonalEdgeStyle;rounded=0;orthogonalLoop=1;jettySize=auto;html=1;entryX=0.5;entryY=0;entryDx=0;entryDy=0;" edge="1" parent="WIyWlLk6GJQsqaUBKTNV-1" source="KOwG92DhggsPmwGEyfMD-3" target="KOwG92DhggsPmwGEyfMD-4">
          <mxGeometry relative="1" as="geometry" />
        </mxCell>
        <mxCell id="KOwG92DhggsPmwGEyfMD-72" style="edgeStyle=orthogonalEdgeStyle;rounded=0;orthogonalLoop=1;jettySize=auto;html=1;startArrow=none;startFill=0;endArrow=none;endFill=0;strokeColor=#000000;" edge="1" parent="WIyWlLk6GJQsqaUBKTNV-1" source="KOwG92DhggsPmwGEyfMD-3">
          <mxGeometry relative="1" as="geometry">
            <mxPoint x="212" y="380" as="targetPoint" />
            <Array as="points">
              <mxPoint x="400" y="280" />
              <mxPoint x="400" y="380" />
            </Array>
          </mxGeometry>
        </mxCell>
        <mxCell id="KOwG92DhggsPmwGEyfMD-3" value="Нажата кнопка &lt;br&gt;&quot;OPEN&quot;?" style="rhombus;whiteSpace=wrap;html=1;" vertex="1" parent="WIyWlLk6GJQsqaUBKTNV-1">
          <mxGeometry x="444" y="235" width="150" height="90" as="geometry" />
        </mxCell>
        <mxCell id="KOwG92DhggsPmwGEyfMD-70" style="edgeStyle=orthogonalEdgeStyle;rounded=0;orthogonalLoop=1;jettySize=auto;html=1;startArrow=none;startFill=0;endArrow=none;endFill=0;strokeColor=#000000;" edge="1" parent="WIyWlLk6GJQsqaUBKTNV-1" source="KOwG92DhggsPmwGEyfMD-4">
          <mxGeometry relative="1" as="geometry">
            <mxPoint x="820" y="401" as="targetPoint" />
          </mxGeometry>
        </mxCell>
        <mxCell id="KOwG92DhggsPmwGEyfMD-4" value="Нажата кнопка &lt;br&gt;&quot;CLOSE&quot;?" style="rhombus;whiteSpace=wrap;html=1;" vertex="1" parent="WIyWlLk6GJQsqaUBKTNV-1">
          <mxGeometry x="624" y="356" width="150" height="90" as="geometry" />
        </mxCell>
        <mxCell id="KOwG92DhggsPmwGEyfMD-5" value="Режим открытия" style="rounded=0;whiteSpace=wrap;html=1;" vertex="1" parent="WIyWlLk6GJQsqaUBKTNV-1">
          <mxGeometry x="170" y="430" width="120" height="60" as="geometry" />
        </mxCell>
        <mxCell id="KOwG92DhggsPmwGEyfMD-67" style="edgeStyle=orthogonalEdgeStyle;rounded=0;orthogonalLoop=1;jettySize=auto;html=1;endArrow=none;endFill=0;strokeColor=#000000;startArrow=classic;startFill=1;" edge="1" parent="WIyWlLk6GJQsqaUBKTNV-1" source="KOwG92DhggsPmwGEyfMD-6">
          <mxGeometry relative="1" as="geometry">
            <mxPoint x="568" y="400" as="targetPoint" />
          </mxGeometry>
        </mxCell>
        <mxCell id="KOwG92DhggsPmwGEyfMD-6" value="Режим закрытия" style="rounded=0;whiteSpace=wrap;html=1;" vertex="1" parent="WIyWlLk6GJQsqaUBKTNV-1">
          <mxGeometry x="364" y="430" width="120" height="60" as="geometry" />
        </mxCell>
        <mxCell id="KOwG92DhggsPmwGEyfMD-7" value="Выключение&amp;nbsp;&lt;br&gt;красного&lt;br&gt;светодиода" style="rounded=0;whiteSpace=wrap;html=1;" vertex="1" parent="WIyWlLk6GJQsqaUBKTNV-1">
          <mxGeometry x="170" y="530" width="120" height="60" as="geometry" />
        </mxCell>
        <mxCell id="KOwG92DhggsPmwGEyfMD-8" value="Выключение&amp;nbsp;&lt;br&gt;зеленного&lt;br&gt;светодиода" style="rounded=0;whiteSpace=wrap;html=1;" vertex="1" parent="WIyWlLk6GJQsqaUBKTNV-1">
          <mxGeometry x="364" y="530" width="120" height="60" as="geometry" />
        </mxCell>
        <mxCell id="KOwG92DhggsPmwGEyfMD-68" style="edgeStyle=orthogonalEdgeStyle;rounded=0;orthogonalLoop=1;jettySize=auto;html=1;startArrow=none;startFill=0;endArrow=classic;endFill=1;strokeColor=#000000;" edge="1" parent="WIyWlLk6GJQsqaUBKTNV-1" source="KOwG92DhggsPmwGEyfMD-9">
          <mxGeometry relative="1" as="geometry">
            <mxPoint x="380" y="117.33334350585938" as="targetPoint" />
            <Array as="points">
              <mxPoint x="210" y="720" />
              <mxPoint x="820" y="720" />
              <mxPoint x="820" y="117" />
            </Array>
          </mxGeometry>
        </mxCell>
        <mxCell id="KOwG92DhggsPmwGEyfMD-9" value="Включение&amp;nbsp;&lt;br&gt;зеленог&lt;br&gt;светодиода" style="rounded=0;whiteSpace=wrap;html=1;" vertex="1" parent="WIyWlLk6GJQsqaUBKTNV-1">
          <mxGeometry x="170" y="618" width="120" height="60" as="geometry" />
        </mxCell>
        <mxCell id="KOwG92DhggsPmwGEyfMD-78" style="edgeStyle=orthogonalEdgeStyle;rounded=0;orthogonalLoop=1;jettySize=auto;html=1;startArrow=none;startFill=0;endArrow=none;endFill=0;strokeColor=#000000;" edge="1" parent="WIyWlLk6GJQsqaUBKTNV-1" source="KOwG92DhggsPmwGEyfMD-10">
          <mxGeometry relative="1" as="geometry">
            <mxPoint x="424" y="720" as="targetPoint" />
          </mxGeometry>
        </mxCell>
        <mxCell id="KOwG92DhggsPmwGEyfMD-10" value="Включение&amp;nbsp;&lt;br&gt;красного&lt;br&gt;светодиода" style="rounded=0;whiteSpace=wrap;html=1;" vertex="1" parent="WIyWlLk6GJQsqaUBKTNV-1">
          <mxGeometry x="364" y="618" width="120" height="60" as="geometry" />
        </mxCell>
        <mxCell id="KOwG92DhggsPmwGEyfMD-39" value="" style="endArrow=classic;html=1;" edge="1" parent="WIyWlLk6GJQsqaUBKTNV-1">
          <mxGeometry width="50" height="50" relative="1" as="geometry">
            <mxPoint x="380" y="100" as="sourcePoint" />
            <mxPoint x="381" y="150" as="targetPoint" />
          </mxGeometry>
        </mxCell>
        <mxCell id="KOwG92DhggsPmwGEyfMD-42" value="" style="endArrow=classic;html=1;exitX=0.5;exitY=1;exitDx=0;exitDy=0;entryX=0.5;entryY=0;entryDx=0;entryDy=0;" edge="1" parent="WIyWlLk6GJQsqaUBKTNV-1" source="KOwG92DhggsPmwGEyfMD-5" target="KOwG92DhggsPmwGEyfMD-7">
          <mxGeometry width="50" height="50" relative="1" as="geometry">
            <mxPoint x="522" y="350" as="sourcePoint" />
            <mxPoint x="572" y="300" as="targetPoint" />
          </mxGeometry>
        </mxCell>
        <mxCell id="KOwG92DhggsPmwGEyfMD-43" value="" style="endArrow=classic;html=1;entryX=0.5;entryY=0;entryDx=0;entryDy=0;exitX=0.5;exitY=1;exitDx=0;exitDy=0;" edge="1" parent="WIyWlLk6GJQsqaUBKTNV-1" source="KOwG92DhggsPmwGEyfMD-6" target="KOwG92DhggsPmwGEyfMD-8">
          <mxGeometry width="50" height="50" relative="1" as="geometry">
            <mxPoint x="216" y="510" as="sourcePoint" />
            <mxPoint x="124" y="540" as="targetPoint" />
          </mxGeometry>
        </mxCell>
        <mxCell id="KOwG92DhggsPmwGEyfMD-44" value="" style="endArrow=classic;html=1;exitX=0.5;exitY=1;exitDx=0;exitDy=0;entryX=0.5;entryY=0;entryDx=0;entryDy=0;" edge="1" parent="WIyWlLk6GJQsqaUBKTNV-1" source="KOwG92DhggsPmwGEyfMD-7" target="KOwG92DhggsPmwGEyfMD-9">
          <mxGeometry width="50" height="50" relative="1" as="geometry">
            <mxPoint x="522" y="350" as="sourcePoint" />
            <mxPoint x="572" y="300" as="targetPoint" />
          </mxGeometry>
        </mxCell>
        <mxCell id="KOwG92DhggsPmwGEyfMD-45" value="" style="endArrow=classic;html=1;exitX=0.5;exitY=1;exitDx=0;exitDy=0;" edge="1" parent="WIyWlLk6GJQsqaUBKTNV-1" source="KOwG92DhggsPmwGEyfMD-8">
          <mxGeometry width="50" height="50" relative="1" as="geometry">
            <mxPoint x="406" y="350" as="sourcePoint" />
            <mxPoint x="424" y="620" as="targetPoint" />
          </mxGeometry>
        </mxCell>
        <mxCell id="KOwG92DhggsPmwGEyfMD-51" value="&lt;font style=&quot;font-size: 14px&quot;&gt;ДА&lt;/font&gt;" style="text;html=1;strokeColor=none;fillColor=none;align=center;verticalAlign=middle;whiteSpace=wrap;rounded=0;" vertex="1" parent="WIyWlLk6GJQsqaUBKTNV-1">
          <mxGeometry x="250" y="166" width="40" height="20" as="geometry" />
        </mxCell>
        <mxCell id="KOwG92DhggsPmwGEyfMD-52" value="&lt;font style=&quot;font-size: 14px&quot;&gt;ДА&lt;/font&gt;" style="text;html=1;strokeColor=none;fillColor=none;align=center;verticalAlign=middle;whiteSpace=wrap;rounded=0;" vertex="1" parent="WIyWlLk6GJQsqaUBKTNV-1">
          <mxGeometry x="39" y="257" width="40" height="20" as="geometry" />
        </mxCell>
        <mxCell id="KOwG92DhggsPmwGEyfMD-53" value="&lt;font style=&quot;font-size: 14px&quot;&gt;ДА&lt;/font&gt;" style="text;html=1;strokeColor=none;fillColor=none;align=center;verticalAlign=middle;whiteSpace=wrap;rounded=0;" vertex="1" parent="WIyWlLk6GJQsqaUBKTNV-1">
          <mxGeometry x="404" y="260" width="40" height="20" as="geometry" />
        </mxCell>
        <mxCell id="KOwG92DhggsPmwGEyfMD-54" value="&lt;font style=&quot;font-size: 14px&quot;&gt;НЕТ&lt;/font&gt;" style="text;html=1;strokeColor=none;fillColor=none;align=center;verticalAlign=middle;whiteSpace=wrap;rounded=0;" vertex="1" parent="WIyWlLk6GJQsqaUBKTNV-1">
          <mxGeometry x="464" y="166" width="40" height="20" as="geometry" />
        </mxCell>
        <mxCell id="KOwG92DhggsPmwGEyfMD-55" value="&lt;font style=&quot;font-size: 14px&quot;&gt;НЕТ&lt;/font&gt;" style="text;html=1;strokeColor=none;fillColor=none;align=center;verticalAlign=middle;whiteSpace=wrap;rounded=0;" vertex="1" parent="WIyWlLk6GJQsqaUBKTNV-1">
          <mxGeometry x="275" y="258" width="40" height="20" as="geometry" />
        </mxCell>
        <mxCell id="KOwG92DhggsPmwGEyfMD-56" value="&lt;font style=&quot;font-size: 14px&quot;&gt;НЕТ&lt;/font&gt;" style="text;html=1;strokeColor=none;fillColor=none;align=center;verticalAlign=middle;whiteSpace=wrap;rounded=0;" vertex="1" parent="WIyWlLk6GJQsqaUBKTNV-1">
          <mxGeometry x="624" y="260" width="40" height="20" as="geometry" />
        </mxCell>
        <mxCell id="KOwG92DhggsPmwGEyfMD-73" value="&lt;font style=&quot;font-size: 14px&quot;&gt;НЕТ&lt;/font&gt;" style="text;html=1;strokeColor=none;fillColor=none;align=center;verticalAlign=middle;whiteSpace=wrap;rounded=0;" vertex="1" parent="WIyWlLk6GJQsqaUBKTNV-1">
          <mxGeometry x="774" y="383" width="40" height="20" as="geometry" />
        </mxCell>
        <mxCell id="KOwG92DhggsPmwGEyfMD-75" value="&lt;font style=&quot;font-size: 14px&quot;&gt;ДА&lt;/font&gt;" style="text;html=1;strokeColor=none;fillColor=none;align=center;verticalAlign=middle;whiteSpace=wrap;rounded=0;" vertex="1" parent="WIyWlLk6GJQsqaUBKTNV-1">
          <mxGeometry x="570" y="379" width="40" height="20" as="geometry" />
        </mxCell>
      </root>
    </mxGraphModel>
  </diagram>
</mxfile>
